<svg xmlns="http://www.w3.org/2000/svg" xmlns:xlink="http://www.w3.org/1999/xlink" aria-hidden="true" role="img" class="iconify iconify--majesticons" width="32" height="32" preserveAspectRatio="xMidYMid meet" viewBox="0 0 24 24"><g fill="none"><path fill-rule="evenodd" clip-rule="evenodd" d="M13 3a1 1 0 1 0-2 0v1a1 1 0 1 0 2 0V3zM5.707 4.293a1 1 0 0 0-1.414 1.414l1 1a1 1 0 0 0 1.414-1.414l-1-1zm14 0a1 1 0 0 0-1.414 0l-1 1a1 1 0 0 0 1.414 1.414l1-1a1 1 0 0 0 0-1.414zM12 7a5 5 0 1 0 0 10a5 5 0 0 0 0-10zm-9 4a1 1 0 1 0 0 2h1a1 1 0 1 0 0-2H3zm17 0a1 1 0 1 0 0 2h1a1 1 0 1 0 0-2h-1zM6.707 18.707a1 1 0 1 0-1.414-1.414l-1 1a1 1 0 1 0 1.414 1.414l1-1zm12-1.414a1 1 0 0 0-1.414 1.414l1 1a1 1 0 0 0 1.414-1.414l-1-1zM13 20a1 1 0 1 0-2 0v1a1 1 0 1 0 2 0v-1z" fill="currentColor"></path></g></svg>